<?xml version="1.0" ?><!DOCTYPE svg  PUBLIC '-//W3C//DTD SVG 1.1//EN'  'http://www.w3.org/Graphics/SVG/1.1/DTD/svg11.dtd'><svg enable-background="new 0 0 800 800" height="800px" id="Layer_1" version="1.1" viewBox="0 0 800 800" width="800px" xml:space="preserve" xmlns="http://www.w3.org/2000/svg" xmlns:cc="http://creativecommons.org/ns#" xmlns:dc="http://purl.org/dc/elements/1.1/" xmlns:inkscape="http://www.inkscape.org/namespaces/inkscape" xmlns:rdf="http://www.w3.org/1999/02/22-rdf-syntax-ns#" xmlns:sodipodi="http://sodipodi.sourceforge.net/DTD/sodipodi-0.dtd" xmlns:svg="http://www.w3.org/2000/svg" xmlns:xlink="http://www.w3.org/1999/xlink"><g><path d="M772.5,261.516c0-128.711-105.31-234.021-234.021-234.021H261.521C132.81,27.494,27.5,132.804,27.5,261.516   v276.969c0,128.711,105.31,234.021,234.021,234.021h276.958c128.712,0,234.021-105.311,234.021-234.021V261.516z" fill="#34B3E4"/><path d="M188.984,577.456c-44.407-49.399-68.642-112.382-68.642-179.49c0-148.396,120.731-269.126,269.126-269.126   c148.402,0,269.132,120.73,269.132,269.126c0,148.401-120.73,269.127-269.132,269.127c-18.558,0-37.064-1.919-55.237-5.734   l-134.715,63.959L188.984,577.456z" fill="#2DA5C1"/><path d="M199.516,557.565c-44.407-49.406-68.642-112.383-68.642-179.496c0-148.39,120.731-269.121,269.126-269.121   c148.401,0,269.132,120.73,269.132,269.121c0,148.407-120.73,269.132-269.132,269.132c-18.558,0-37.064-1.925-55.237-5.733   l-145.247,83.85V557.565z" fill="#FFFFFF"/><path d="M400,155.751c-122.782,0-222.323,99.536-222.323,222.318c0,63.149,26.372,120.104,68.647,160.576v105.603   l91.389-52.756c19.77,5.758,40.661,8.906,62.287,8.906c122.788,0,222.323-99.536,222.323-222.329   C622.323,255.287,522.788,155.751,400,155.751z" fill="#34B3E4"/><path d="M247.479,438.73c-9.394,5.585-6.699,2.252-3.103-4.798l57.358-109.4   c6.906-13.812,22.804-17.719,35.329-8.676l108.757,78.519c12.52,9.038,30.991,6.837,41.046-4.884l62.104-80.104   c10.055-11.721,5.563-3.873,9.458-4.964L481.581,463.04c-7.142,13.691-23.241,17.507-35.761,8.457l-108.757-78.524   c-12.525-9.043-31.273-7.084-41.661,4.344L247.479,438.73z" fill="#1A9EC6"/><path d="M247.479,438.73c-10.388,11.428-13.243,9.48-6.332-4.332l60.587-121.173   c6.906-13.812,22.804-17.719,35.329-8.682l108.757,78.524c12.52,9.038,30.991,6.837,41.046-4.89l66.275-77.329   c10.049-11.732,12.428-10.124,5.286,3.574l-76.847,147.31c-7.142,13.691-23.241,17.501-35.761,8.452l-108.757-78.519   c-12.525-9.043-31.273-7.084-41.661,4.344L247.479,438.73z" fill="#FFFFFF"/></g></svg>